# xmcd
#
# Track frame offsets:
#	150
#	11991
#	25999
#	38392
#	52020
#	63508
#	80462
#	92644
#	109614
#	120128
#	138197
#	150228
#	160723
#	174439
#
# Disc length: 2575 seconds
#
# Revision: 13
# Processed by: cddbd v1.5.2PL0 Copyright (c) Steve Scherf et al.
# Submitted via: EasyCDDAExtractor 11.0.3.1
#
DISCID=9b0a0d0e
DTITLE=Johnny Cash - Greatest Hits (Steel Box Collection)
DYEAR=2008
DGENRE=Country
TTITLE0=Ring of Fire
TTITLE1=Orange Blossom Special
TTITLE2=Jackson
TTITLE3=Don't Take Your Guns to Town
TTITLE4=I Walk the Line
TTITLE5=A Boy Named Sue
TTITLE6=Folsom Prison Blues
TTITLE7=(Ghost) Riders in the Sky
TTITLE8=Daddy Sang Bass
TTITLE9=One Piece at A Time
TTITLE10=I'm So Lonesome I Could Cry
TTITLE11=Hey Porter
TTITLE12=It Ain't Me Babe
TTITLE13=The Ballad of Ira Hayes
EXTD=YEAR: 2001
EXTT0=
EXTT1=
EXTT2=
EXTT3=
EXTT4=
EXTT5=
EXTT6=
EXTT7=
EXTT8=
EXTT9=
EXTT10=
EXTT11=
EXTT12=
EXTT13=
PLAYORDER=
